<svg width="30" height="30" viewBox="0 0 30 30" fill="none" xmlns="http://www.w3.org/2000/svg">
<rect width="30" height="30" fill="#FF00EE"/>
<path d="M11.0985 9.422C11.3329 9.22567 11.5862 9.042 11.8585 8.871C12.1372 8.7 12.4349 8.55117 12.7515 8.4245C13.0682 8.2915 13.407 8.19017 13.768 8.1205C14.1354 8.0445 14.5312 8.0065 14.9555 8.0065C15.5509 8.0065 16.086 8.08567 16.561 8.244C17.0424 8.40233 17.4509 8.63033 17.7865 8.928C18.1222 9.21933 18.3787 9.574 18.556 9.992C18.7397 10.4037 18.8315 10.8628 18.8315 11.3695C18.8315 11.8508 18.765 12.2688 18.632 12.6235C18.499 12.9718 18.3312 13.2758 18.1285 13.5355C17.9259 13.7952 17.701 14.02 17.454 14.21C17.2134 14.4 16.9822 14.5773 16.7605 14.742C16.5452 14.9003 16.3552 15.0587 16.1905 15.217C16.0322 15.3753 15.9309 15.5527 15.8865 15.749L15.6205 17.079H13.6065L13.3975 15.5495C13.3469 15.2392 13.3785 14.97 13.4925 14.742C13.6065 14.5077 13.7617 14.2987 13.958 14.115C14.1607 13.925 14.3855 13.7477 14.6325 13.583C14.8795 13.412 15.1107 13.2315 15.326 13.0415C15.5414 12.8452 15.7219 12.6298 15.8675 12.3955C16.0195 12.1548 16.0955 11.8698 16.0955 11.5405C16.0955 11.1605 15.9689 10.8597 15.7155 10.638C15.4685 10.41 15.1265 10.296 14.6895 10.296C14.3539 10.296 14.072 10.3308 13.844 10.4005C13.6224 10.4702 13.4292 10.5493 13.2645 10.638C13.1062 10.7203 12.9669 10.7963 12.8465 10.866C12.7262 10.9357 12.6059 10.9705 12.4855 10.9705C12.2132 10.9705 12.0105 10.8533 11.8775 10.619L11.0985 9.422ZM12.8465 20.5085C12.8465 20.2805 12.8877 20.0683 12.97 19.872C13.0587 19.6757 13.1759 19.5047 13.3215 19.359C13.4735 19.2133 13.6509 19.0993 13.8535 19.017C14.0562 18.9283 14.2779 18.884 14.5185 18.884C14.7529 18.884 14.9714 18.9283 15.174 19.017C15.3767 19.0993 15.554 19.2133 15.706 19.359C15.858 19.5047 15.9752 19.6757 16.0575 19.872C16.1462 20.0683 16.1905 20.2805 16.1905 20.5085C16.1905 20.7365 16.1462 20.9518 16.0575 21.1545C15.9752 21.3508 15.858 21.5218 15.706 21.6675C15.554 21.8132 15.3767 21.9272 15.174 22.0095C14.9714 22.0918 14.7529 22.133 14.5185 22.133C14.2779 22.133 14.0562 22.0918 13.8535 22.0095C13.6509 21.9272 13.4735 21.8132 13.3215 21.6675C13.1759 21.5218 13.0587 21.3508 12.97 21.1545C12.8877 20.9518 12.8465 20.7365 12.8465 20.5085Z" fill="white"/>
</svg>
