<svg width="81" height="56" viewBox="0 0 81 56" fill="none" xmlns="http://www.w3.org/2000/svg">
<path fill-rule="evenodd" clip-rule="evenodd" d="M23.9841 45.1746C23.9841 46.2266 23.1313 47.0794 22.0794 47.0794C21.0274 47.0794 20.1746 46.2266 20.1746 45.1746C20.1746 44.1226 21.0274 43.2698 22.0794 43.2698C23.1313 43.2698 23.9841 44.1226 23.9841 45.1746ZM24.2377 47.5026C24.8628 46.9229 25.254 46.0944 25.254 45.1746C25.254 43.4213 23.8327 42 22.0794 42C20.3261 42 18.9048 43.4213 18.9048 45.1746C18.9048 46.0944 19.2959 46.9229 19.921 47.5026C18.1999 48.269 17 49.9944 17 52H18.2698C18.2698 49.9837 19.9044 48.3492 21.9206 48.3492H22.0794H22.2381C24.2544 48.3492 25.8889 49.9837 25.8889 52H27.1587C27.1587 49.9944 25.9588 48.269 24.2377 47.5026Z" fill="white"/>
<path fill-rule="evenodd" clip-rule="evenodd" d="M43.2641 18.7316C43.2641 19.3054 42.7989 19.7706 42.2251 19.7706C41.6513 19.7706 41.1861 19.3054 41.1861 18.7316C41.1861 18.1578 41.6513 17.6926 42.2251 17.6926C42.7989 17.6926 43.2641 18.1578 43.2641 18.7316ZM43.4024 20.0014C43.7433 19.6852 43.9567 19.2333 43.9567 18.7316C43.9567 17.7753 43.1814 17 42.2251 17C41.2688 17 40.4935 17.7753 40.4935 18.7316C40.4935 19.2333 40.7069 19.6852 41.0478 20.0014C40.109 20.4195 39.4545 21.3606 39.4545 22.4545H40.1472C40.1472 21.3548 41.0387 20.4632 42.1385 20.4632H42.3117C43.4115 20.4632 44.303 21.3548 44.303 22.4545H44.9957C44.9957 21.3606 44.3412 20.4195 43.4024 20.0014Z" fill="white"/>
<path fill-rule="evenodd" clip-rule="evenodd" d="M48.7186 23.2771C48.7186 23.8509 48.2535 24.316 47.6797 24.316C47.1059 24.316 46.6407 23.8509 46.6407 23.2771C46.6407 22.7033 47.1059 22.2381 47.6797 22.2381C48.2535 22.2381 48.7186 22.7033 48.7186 23.2771ZM48.857 24.5469C49.1979 24.2306 49.4113 23.7788 49.4113 23.2771C49.4113 22.3207 48.636 21.5455 47.6797 21.5455C46.7233 21.5455 45.9481 22.3207 45.9481 23.2771C45.9481 23.7788 46.1615 24.2306 46.5024 24.5469C45.5636 24.9649 44.9091 25.906 44.9091 27H45.6018C45.6018 25.9002 46.4933 25.0087 47.5931 25.0087H47.7663C48.866 25.0087 49.7576 25.9002 49.7576 27H50.4502C50.4502 25.906 49.7957 24.9649 48.857 24.5469Z" fill="white"/>
<path fill-rule="evenodd" clip-rule="evenodd" d="M37.8095 23.2771C37.8095 23.8509 37.3444 24.316 36.7706 24.316C36.1968 24.316 35.7316 23.8509 35.7316 23.2771C35.7316 22.7033 36.1968 22.2381 36.7706 22.2381C37.3444 22.2381 37.8095 22.7033 37.8095 23.2771ZM37.9478 24.5469C38.2888 24.2306 38.5022 23.7788 38.5022 23.2771C38.5022 22.3207 37.7269 21.5455 36.7706 21.5455C35.8142 21.5455 35.039 22.3207 35.039 23.2771C35.039 23.7788 35.2523 24.2306 35.5933 24.5469C34.6545 24.9649 34 25.906 34 27H34.6926C34.6926 25.9002 35.5842 25.0087 36.684 25.0087H36.8571C37.9569 25.0087 38.8485 25.9002 38.8485 27H39.5411C39.5411 25.906 38.8866 24.9649 37.9478 24.5469Z" fill="white"/>
<path fill-rule="evenodd" clip-rule="evenodd" d="M69.6429 17.9286C69.6429 18.402 69.2591 18.7857 68.7857 18.7857C68.3123 18.7857 67.9286 18.402 67.9286 17.9286C67.9286 17.4552 68.3123 17.0714 68.7857 17.0714C69.2591 17.0714 69.6429 17.4552 69.6429 17.9286ZM69.757 18.9762C70.0383 18.7153 70.2143 18.3425 70.2143 17.9286C70.2143 17.1396 69.5747 16.5 68.7857 16.5C67.9967 16.5 67.3571 17.1396 67.3571 17.9286C67.3571 18.3425 67.5332 18.7153 67.8145 18.9762C67.04 19.3211 66.5 20.0975 66.5 21H67.0714C67.0714 20.0927 67.807 19.3571 68.7143 19.3571H68.8571C69.7645 19.3571 70.5 20.0927 70.5 21H71.0714C71.0714 20.0975 70.5315 19.3211 69.757 18.9762Z" fill="white"/>
<path fill-rule="evenodd" clip-rule="evenodd" d="M78.6429 16.4286C78.6429 16.902 78.2591 17.2857 77.7857 17.2857C77.3123 17.2857 76.9286 16.902 76.9286 16.4286C76.9286 15.9552 77.3123 15.5714 77.7857 15.5714C78.2591 15.5714 78.6429 15.9552 78.6429 16.4286ZM78.757 17.4762C79.0383 17.2153 79.2143 16.8425 79.2143 16.4286C79.2143 15.6396 78.5747 15 77.7857 15C76.9967 15 76.3571 15.6396 76.3571 16.4286C76.3571 16.8425 76.5332 17.2153 76.8145 17.4762C76.04 17.8211 75.5 18.5975 75.5 19.5H76.0714C76.0714 18.5927 76.807 17.8571 77.7143 17.8571H77.8571C78.7645 17.8571 79.5 18.5927 79.5 19.5H80.0714C80.0714 18.5975 79.5315 17.8211 78.757 17.4762Z" fill="white"/>
<path fill-rule="evenodd" clip-rule="evenodd" d="M78.6429 20.9286C78.6429 21.402 78.2591 21.7857 77.7857 21.7857C77.3123 21.7857 76.9286 21.402 76.9286 20.9286C76.9286 20.4552 77.3123 20.0714 77.7857 20.0714C78.2591 20.0714 78.6429 20.4552 78.6429 20.9286ZM78.757 21.9762C79.0383 21.7153 79.2143 21.3425 79.2143 20.9286C79.2143 20.1396 78.5747 19.5 77.7857 19.5C76.9967 19.5 76.3571 20.1396 76.3571 20.9286C76.3571 21.3425 76.5332 21.7153 76.8145 21.9762C76.04 22.3211 75.5 23.0975 75.5 24H76.0714C76.0714 23.0927 76.807 22.3571 77.7143 22.3571H77.8571C78.7645 22.3571 79.5 23.0927 79.5 24H80.0714C80.0714 23.0975 79.5315 22.3211 78.757 21.9762Z" fill="white"/>
<path fill-rule="evenodd" clip-rule="evenodd" d="M69.6429 22.4286C69.6429 22.902 69.2591 23.2857 68.7857 23.2857C68.3123 23.2857 67.9286 22.902 67.9286 22.4286C67.9286 21.9552 68.3123 21.5714 68.7857 21.5714C69.2591 21.5714 69.6429 21.9552 69.6429 22.4286ZM69.757 23.4762C70.0383 23.2153 70.2143 22.8425 70.2143 22.4286C70.2143 21.6396 69.5747 21 68.7857 21C67.9967 21 67.3571 21.6396 67.3571 22.4286C67.3571 22.8425 67.5332 23.2153 67.8145 23.4762C67.04 23.8211 66.5 24.5975 66.5 25.5H67.0714C67.0714 24.5927 67.807 23.8571 68.7143 23.8571H68.8571C69.7645 23.8571 70.5 24.5927 70.5 25.5H71.0714C71.0714 24.5975 70.5315 23.8211 69.757 23.4762Z" fill="white"/>
<path fill-rule="evenodd" clip-rule="evenodd" d="M74.1429 19.4286C74.1429 19.902 73.7591 20.2857 73.2857 20.2857C72.8123 20.2857 72.4286 19.902 72.4286 19.4286C72.4286 18.9552 72.8123 18.5714 73.2857 18.5714C73.7591 18.5714 74.1429 18.9552 74.1429 19.4286ZM74.257 20.4762C74.5383 20.2153 74.7143 19.8425 74.7143 19.4286C74.7143 18.6396 74.0747 18 73.2857 18C72.4967 18 71.8571 18.6396 71.8571 19.4286C71.8571 19.8425 72.0332 20.2153 72.3145 20.4762C71.54 20.8211 71 21.5975 71 22.5H71.5714C71.5714 21.5927 72.307 20.8571 73.2143 20.8571H73.3571C74.2645 20.8571 75 21.5927 75 22.5H75.5714C75.5714 21.5975 75.0315 20.8211 74.257 20.4762Z" fill="white"/>
<path fill-rule="evenodd" clip-rule="evenodd" d="M74.1429 23.9286C74.1429 24.402 73.7591 24.7857 73.2857 24.7857C72.8123 24.7857 72.4286 24.402 72.4286 23.9286C72.4286 23.4552 72.8123 23.0714 73.2857 23.0714C73.7591 23.0714 74.1429 23.4552 74.1429 23.9286ZM74.257 24.9762C74.5383 24.7153 74.7143 24.3425 74.7143 23.9286C74.7143 23.1396 74.0747 22.5 73.2857 22.5C72.4967 22.5 71.8571 23.1396 71.8571 23.9286C71.8571 24.3425 72.0332 24.7153 72.3145 24.9762C71.54 25.3211 71 26.0975 71 27H71.5714C71.5714 26.0927 72.307 25.3571 73.2143 25.3571H73.3571C74.2645 25.3571 75 26.0927 75 27H75.5714C75.5714 26.0975 75.0315 25.3211 74.257 24.9762Z" fill="white"/>
<path fill-rule="evenodd" clip-rule="evenodd" d="M65.1429 20.9286C65.1429 21.402 64.7591 21.7857 64.2857 21.7857C63.8123 21.7857 63.4286 21.402 63.4286 20.9286C63.4286 20.4552 63.8123 20.0714 64.2857 20.0714C64.7591 20.0714 65.1429 20.4552 65.1429 20.9286ZM65.257 21.9762C65.5383 21.7153 65.7143 21.3425 65.7143 20.9286C65.7143 20.1396 65.0747 19.5 64.2857 19.5C63.4967 19.5 62.8571 20.1396 62.8571 20.9286C62.8571 21.3425 63.0332 21.7153 63.3145 21.9762C62.54 22.3211 62 23.0975 62 24H62.5714C62.5714 23.0927 63.307 22.3571 64.2143 22.3571H64.3571C65.2645 22.3571 66 23.0927 66 24H66.5714C66.5714 23.0975 66.0315 22.3211 65.257 21.9762Z" fill="white"/>
<path d="M1 1V55H78.5" stroke="white" stroke-width="2"/>
<path d="M32.5 28L32.8547 27.065L32.2998 26.8545L31.8492 27.2407L32.5 28ZM47 33.5L46.6453 34.435L47.2657 34.6703L47.7236 34.1902L47 33.5ZM78.9997 0.976385C78.9867 0.424254 78.5285 -0.0127636 77.9764 0.000278884L68.9789 0.212818C68.4268 0.22586 67.9897 0.684024 68.0028 1.23615C68.0158 1.78829 68.474 2.2253 69.0261 2.21226L77.0239 2.02334L77.2128 10.0211C77.2259 10.5732 77.684 11.0103 78.2362 10.9972C78.7883 10.9842 79.2253 10.526 79.2123 9.97387L78.9997 0.976385ZM1.65079 55.7593L33.1508 28.7593L31.8492 27.2407L0.349209 54.2407L1.65079 55.7593ZM32.1453 28.935L46.6453 34.435L47.3547 32.565L32.8547 27.065L32.1453 28.935ZM47.7236 34.1902L78.7236 1.69021L77.2764 0.309789L46.2764 32.8098L47.7236 34.1902Z" fill="#FF00EE"/>
</svg>
