<?xml version="1.0" encoding="UTF-8"?>
<svg xmlns="http://www.w3.org/2000/svg" xmlns:xlink="http://www.w3.org/1999/xlink" viewBox="0 0 16 16" width="16px" height="16px">
<g id="surface76584513">
<path style=" stroke:none;fill-rule:nonzero;fill:rgb(100%,0%,93.333334%);fill-opacity:1;" d="M 1.441406 14.300781 L 2.574219 13.167969 L 2.507812 13.097656 C 1.210938 11.707031 0.5 9.894531 0.5 8 C 0.5 3.863281 3.863281 0.5 8 0.5 C 8.339844 0.5 8.699219 0.527344 9.101562 0.589844 L 9.101562 2.410156 C 8.730469 2.335938 8.363281 2.300781 8 2.300781 C 4.855469 2.300781 2.300781 4.855469 2.300781 8 C 2.300781 9.40625 2.824219 10.761719 3.78125 11.8125 L 3.851562 11.890625 L 5.101562 10.640625 L 5.101562 14.300781 Z M 1.441406 14.300781 "/>
<path style=" stroke:none;fill-rule:nonzero;fill:rgb(100%,0%,93.333334%);fill-opacity:1;" d="M 8 0.601562 C 8.308594 0.601562 8.636719 0.625 9 0.675781 L 9 2.289062 C 8.664062 2.230469 8.328125 2.199219 8 2.199219 C 4.800781 2.199219 2.199219 4.800781 2.199219 8 C 2.199219 9.429688 2.734375 10.808594 3.707031 11.878906 L 3.847656 12.035156 L 5 10.882812 L 5 14.199219 L 1.683594 14.199219 L 2.710938 13.171875 L 2.582031 13.03125 C 1.304688 11.65625 0.601562 9.871094 0.601562 8 C 0.601562 3.917969 3.917969 0.601562 8 0.601562 M 8 0.398438 C 3.800781 0.398438 0.398438 3.800781 0.398438 8 C 0.398438 9.996094 1.171875 11.8125 2.433594 13.164062 L 1.199219 14.398438 L 5.199219 14.398438 L 5.199219 10.398438 L 3.855469 11.746094 C 2.953125 10.753906 2.398438 9.445312 2.398438 8 C 2.398438 4.90625 4.90625 2.398438 8 2.398438 C 8.414062 2.398438 8.8125 2.449219 9.199219 2.53125 L 9.199219 0.503906 C 8.808594 0.441406 8.410156 0.398438 8 0.398438 Z M 8 0.398438 "/>
<path style=" stroke:none;fill-rule:nonzero;fill:rgb(100%,0%,93.333334%);fill-opacity:1;" d="M 8 15.5 C 7.660156 15.5 7.300781 15.472656 6.898438 15.410156 L 6.898438 13.589844 C 7.269531 13.664062 7.636719 13.699219 8 13.699219 C 11.144531 13.699219 13.699219 11.144531 13.699219 8 C 13.699219 6.589844 13.175781 5.238281 12.222656 4.183594 L 12.152344 4.105469 L 10.898438 5.359375 L 10.898438 1.699219 L 14.558594 1.699219 L 13.421875 2.835938 L 13.488281 2.90625 C 14.785156 4.300781 15.5 6.109375 15.5 8 C 15.5 12.136719 12.136719 15.5 8 15.5 Z M 8 15.5 "/>
<path style=" stroke:none;fill-rule:nonzero;fill:rgb(100%,0%,93.333334%);fill-opacity:1;" d="M 14.316406 1.800781 L 13.285156 2.832031 L 13.414062 2.972656 C 14.695312 4.347656 15.398438 6.132812 15.398438 8 C 15.398438 12.082031 12.082031 15.398438 8 15.398438 C 7.691406 15.398438 7.363281 15.375 7 15.324219 L 7 13.710938 C 7.335938 13.769531 7.671875 13.800781 8 13.800781 C 11.199219 13.800781 13.800781 11.199219 13.800781 8 C 13.800781 6.566406 13.265625 5.1875 12.296875 4.117188 L 12.15625 3.960938 L 11 5.117188 L 11 1.800781 L 14.316406 1.800781 M 14.800781 1.601562 L 10.800781 1.601562 L 10.800781 5.601562 L 12.148438 4.253906 C 13.046875 5.246094 13.601562 6.554688 13.601562 8 C 13.601562 11.09375 11.09375 13.601562 8 13.601562 C 7.585938 13.601562 7.1875 13.550781 6.800781 13.46875 L 6.800781 15.496094 C 7.191406 15.558594 7.589844 15.601562 8 15.601562 C 12.199219 15.601562 15.601562 12.199219 15.601562 8 C 15.601562 6.003906 14.824219 4.191406 13.5625 2.835938 Z M 14.800781 1.601562 "/>
</g>
</svg>
