<svg width="194" height="184" viewBox="0 0 194 184" fill="none" xmlns="http://www.w3.org/2000/svg">
<path fill-rule="evenodd" clip-rule="evenodd" d="M97.1106 148.799V0C99.5712 1.63016e-06 102.032 1.38636 103.032 4.15908L122.965 59.4357C123.84 61.8622 126.106 63.5092 128.685 63.5916L187.415 65.4675C193.307 65.6557 195.731 73.1144 191.075 76.7299L144.663 112.769C142.626 114.351 141.76 117.016 142.478 119.493L158.843 175.929C160.485 181.591 154.14 186.2 149.263 182.89L100.646 149.886C99.5787 149.162 98.3447 148.799 97.1106 148.799Z" fill="#D1D1D1"/>
<path fill-rule="evenodd" clip-rule="evenodd" d="M96.4087 0C93.9482 -4.05691e-08 91.4876 1.38636 90.4878 4.15907L70.5548 59.4357C69.6798 61.8622 67.4129 63.5092 64.8348 63.5916L6.10398 65.4675C0.212023 65.6557 -2.21148 73.1144 2.4446 76.7299L48.8562 112.769C50.8935 114.351 51.7594 117.016 51.0411 119.493L34.6763 175.929C33.0346 181.591 39.3794 186.2 44.2567 182.89L92.8736 149.886C93.9406 149.162 95.1747 148.799 96.4087 148.799V0Z" fill="#feb850"/>
</svg>
