<svg width="592" height="565" viewBox="0 0 592 565" fill="none" xmlns="http://www.w3.org/2000/svg">
<path d="M277.852 13.0366C283.989 -3.98324 308.06 -3.98322 314.197 13.0366L375.374 182.69C378.06 190.137 385.017 195.192 392.93 195.445L573.185 201.202C591.268 201.78 598.706 224.672 584.416 235.768L441.971 346.377C435.718 351.233 433.06 359.412 435.265 367.015L485.491 540.227C490.53 557.603 471.057 571.751 456.088 561.59L306.875 460.297C300.324 455.85 291.724 455.85 285.174 460.297L135.961 561.59C120.992 571.751 101.519 557.603 106.558 540.227L156.784 367.015C158.988 359.412 156.331 351.233 150.078 346.377L7.63305 235.768C-6.65721 224.672 0.780927 201.78 18.8643 201.202L199.119 195.445C207.031 195.192 213.989 190.137 216.675 182.69L277.852 13.0366Z" fill="#D1D1D1"/>
</svg>
