<svg width="504" height="481" viewBox="0 0 504 481" fill="none" xmlns="http://www.w3.org/2000/svg">
<path d="M236.583 11.7538C241.79 -2.68541 262.21 -2.68545 267.417 11.7538L319.319 155.683C321.597 162.002 327.5 166.29 334.213 166.505L487.136 171.389C502.478 171.879 508.788 191.3 496.665 200.714L375.818 294.552C370.513 298.671 368.258 305.61 370.129 312.061L412.739 459.009C417.014 473.752 400.493 485.755 387.794 477.133L261.205 391.199C255.648 387.426 248.352 387.426 242.795 391.199L116.206 477.133C103.507 485.755 86.9859 473.752 91.2607 459.01L133.871 312.061C135.742 305.61 133.487 298.671 128.182 294.552L7.33547 200.714C-4.78806 191.3 1.52222 171.879 16.8637 171.389L169.787 166.505C176.5 166.29 182.403 162.002 184.681 155.684L236.583 11.7538Z" fill="#FFD600"/>
</svg>
